<svg width="293" height="31" viewBox="0 0 293 31" fill="none" xmlns="http://www.w3.org/2000/svg">
<g clip-path="url(#clip0_6881_233)">
<path d="M48.7619 27.557L49.0669 13.4257C47.0083 16.048 46.1765 16.5891 45.4418 16.5891C44.6446 16.5891 44 15.9856 44 15.2641C44 14.9311 44.1525 14.5426 44.5199 14.2096C47.438 11.4625 50.1136 7.4874 51.5276 3.29726C51.7702 2.63128 52.297 2.33298 52.8515 2.33298C53.6833 2.33298 54.5705 2.96427 54.5705 3.81062C54.5705 4.38642 53.3437 6.88385 52.0821 8.99279L51.7148 27.557C51.7148 28.4589 50.9454 28.9167 50.2383 28.9167C49.5313 28.9167 48.7619 28.4658 48.7619 27.5917V27.564V27.557ZM54.626 10.1374C53.7041 10.1374 53.2466 9.50615 53.2466 8.87486C53.2466 8.24356 53.711 7.61227 54.626 7.61227H70.506C71.4279 7.61227 71.8577 8.24356 71.8577 8.87486C71.8577 9.50615 71.4279 10.1374 70.506 10.1374H54.626ZM67.0056 28.2785C65.4391 28.3409 63.8449 28.3409 62.3338 28.3409C60.8227 28.3409 59.3255 28.3409 57.9115 28.2785C56.4351 28.2161 55.5132 27.224 55.4855 25.899C55.4578 25.233 55.4578 24.6642 55.4578 24.0884C55.4578 23.3322 55.4578 22.6107 55.4855 21.8615C55.5132 20.7168 56.3796 19.6346 57.9739 19.5722C59.2354 19.5098 60.5247 19.5098 61.8139 19.5098C63.5953 19.5098 65.3767 19.5375 67.068 19.5722C68.3919 19.5999 69.6812 20.2659 69.7366 21.7089C69.7644 22.4026 69.7644 23.0963 69.7644 23.8178C69.7644 24.5393 69.7644 25.2053 69.7366 25.8643C69.7089 27.224 68.6276 28.2161 67.0056 28.2785ZM57.1768 6.00975C56.2895 6.00975 55.8251 5.4062 55.8251 4.77491C55.8251 4.14361 56.2826 3.54007 57.1768 3.54007H67.7404C68.6345 3.54007 69.0643 4.14361 69.0643 4.77491C69.0643 5.4062 68.6345 6.00975 67.7404 6.00975H57.1768ZM57.2669 17.9419C56.345 17.9419 55.8875 17.3106 55.8875 16.7071C55.8875 16.0758 56.345 15.4722 57.2669 15.4722H67.7681C68.6622 15.4722 69.092 16.0758 69.092 16.7071C69.092 17.3384 68.6622 17.9419 67.7681 17.9419H57.2669ZM57.2669 14.057C56.3727 14.057 55.9152 13.4257 55.9152 12.8222C55.9152 12.1909 56.3727 11.5873 57.2669 11.5873H67.7681C68.6622 11.5873 69.092 12.1909 69.092 12.8222C69.092 13.4535 68.6622 14.057 67.7681 14.057H57.2669ZM66.7907 23.908C66.7907 23.5195 66.7907 23.0963 66.763 22.6732C66.7353 21.7713 66.4858 21.7713 62.4031 21.7713C61.2941 21.7713 60.2197 21.7991 59.2978 21.8337C58.3482 21.8615 58.3135 22.2847 58.3135 23.8248C58.3135 25.5452 58.3759 25.8435 59.2978 25.9059C60.3445 25.9337 61.3842 25.9684 62.4932 25.9684C63.6023 25.9684 64.7044 25.9406 65.8411 25.9059C66.7006 25.8435 66.7907 25.5452 66.7907 23.9149V23.908Z" fill="white"/>
<path d="M85.5886 27.4946C85.5886 28.341 84.8192 28.7572 84.0844 28.7572C83.3497 28.7572 82.5456 28.334 82.5456 27.4946V27.4668L82.6981 17.824C81.499 19.482 80.182 21.0776 78.9205 22.2569C78.5184 22.6177 78.0887 22.7703 77.6936 22.7703C76.8618 22.7703 76.1895 22.1043 76.1895 21.3828C76.1895 20.9874 76.3766 20.5989 76.8064 20.2382C78.5254 18.8854 81.1385 16.1105 82.7674 13.4257L82.7397 12.732L78.56 12.8222H78.5323C77.6104 12.8222 77.1807 12.1909 77.1807 11.5249C77.1807 10.8589 77.6381 10.1999 78.56 10.1999H82.7051L82.6149 7.06423C82.1228 7.15441 79.7592 7.54984 79.3294 7.54984C78.4075 7.54984 77.9154 6.85611 77.9154 6.19013C77.9154 5.58658 78.3174 4.98304 79.1423 4.89285C82.0327 4.6223 84.4587 4.10894 87.1273 3.1724C87.2798 3.10996 87.4323 3.08221 87.5918 3.08221C88.3612 3.08221 88.9434 3.77595 88.9434 4.46968C88.9434 5.64208 87.3145 6.00976 85.5678 6.426C85.54 7.11973 85.54 8.56269 85.5054 10.193H88.576C89.4979 10.193 89.9554 10.8589 89.9554 11.518C89.9554 12.177 89.4979 12.8153 88.6038 12.8153H88.576L85.443 12.7528V14.619C85.5678 14.5912 85.6579 14.5912 85.748 14.5912C86.2678 14.5912 90.0455 16.3672 90.0455 17.935C90.0455 18.6912 89.4009 19.378 88.6939 19.378C88.3542 19.378 88.0215 19.2253 87.7096 18.8646C87.1551 18.1709 86.2055 17.4147 85.4361 16.8736C85.4638 21.3967 85.5886 27.453 85.5886 27.453V27.4807V27.4946ZM96.6096 27.224C93.0191 27.224 90.7109 27.224 90.6208 23.8456C90.5584 21.5216 90.5307 19.0241 90.5307 16.492C90.5307 13.9599 90.5584 11.4625 90.6208 9.16623C90.7109 6.21094 93.1092 6.15544 96.1521 6.15544C97.2265 6.15544 98.391 6.15544 99.2228 6.18319C101.094 6.24563 102.418 7.39028 102.481 9.37435C102.571 11.5457 102.605 14.0154 102.605 16.5198C102.605 19.0241 102.578 21.5216 102.481 23.7831C102.418 25.7117 101.316 27.0367 99.1604 27.1616C98.5158 27.1894 97.5662 27.224 96.6096 27.224ZM96.7691 24.5393C99.1951 24.5393 99.5347 24.241 99.5624 23.0339C99.6248 21.1053 99.6526 18.7883 99.6526 16.4643C99.6526 14.1403 99.6248 11.8857 99.5624 10.075C99.5347 8.72225 98.8277 8.65981 96.5819 8.65981C93.9687 8.65981 93.5736 8.90262 93.539 10.075C93.4489 11.851 93.4142 14.0501 93.4142 16.2562C93.4142 18.6981 93.4419 21.14 93.539 23.131C93.5667 24.3659 93.9687 24.5462 96.7621 24.5462L96.7691 24.5393Z" fill="white"/>
<path d="M109.975 25.9892C108.991 25.9892 108.471 25.2677 108.471 24.574C108.471 23.8803 108.991 23.1588 109.975 23.1588H120.109V8.56963H111.722C110.737 8.56963 110.217 7.8759 110.217 7.18217C110.217 6.48844 110.737 5.79471 111.722 5.79471H131.379C132.273 5.79471 132.759 6.51619 132.759 7.20992C132.759 7.90365 132.301 8.56963 131.379 8.56963H123.269V23.1588H133.251C134.145 23.1588 134.63 23.8803 134.63 24.6087C134.63 25.3371 134.173 25.9961 133.251 25.9961H109.968L109.975 25.9892Z" fill="white"/>
<path d="M164.588 21.0151L156.845 20.8625H155.923C159.119 23.0894 162.342 24.1786 165.842 25.3232C166.522 25.5313 166.792 26.0169 166.792 26.4956C166.792 27.2795 166.12 28.1536 165.163 28.1536C164.546 28.1536 159.202 26.1973 154.537 22.6385L154.6 27.8206V27.8484C154.6 28.6046 153.865 28.9931 153.158 28.9931C152.451 28.9931 151.716 28.6323 151.716 27.8484V27.8206L151.778 22.6662C147.973 25.677 142.137 28.2716 141.152 28.2716C140.231 28.2716 139.586 27.6056 139.586 26.9119C139.586 26.4262 139.926 25.9753 140.66 25.7048C144.41 24.4352 147.266 23.1102 150.212 20.8556H149.2L141.735 21.0082H141.707C140.938 21.0082 140.57 20.4671 140.57 19.8913C140.57 19.3155 140.972 18.7466 141.735 18.7466L151.778 18.8091L151.751 17.4841L144.812 17.5118C144.133 17.5118 143.766 16.9984 143.766 16.4851C143.766 16.0064 144.133 15.4931 144.812 15.4931L151.723 15.5208V14.2235L143.246 14.2513C142.476 14.2513 142.081 13.7102 142.081 13.1344C142.081 12.5933 142.483 12.0521 143.246 12.0521L148.618 12.0799C148.431 11.629 148.216 11.178 148.001 10.8451C147.876 10.6924 147.848 10.5468 147.848 10.3941C147.848 10.0334 148.188 9.72815 148.618 9.61022L141.582 9.63797C140.723 9.63797 140.293 9.00667 140.293 8.37537C140.293 7.74408 140.723 7.14053 141.554 7.14053H141.582L145.602 7.20297C145.173 6.50924 144.59 5.87794 144.008 5.2744C143.821 5.06628 143.731 4.85122 143.731 4.6431C143.731 4.01181 144.528 3.43601 145.27 3.43601C145.512 3.43601 145.762 3.46376 145.977 3.61638C146.531 3.97712 148.16 6.03056 148.465 7.23072L149.54 7.25847L149.512 3.2487V3.22096C149.512 2.3746 150.184 1.98611 150.863 1.98611C151.543 1.98611 152.243 2.40929 152.243 3.2487V7.25847H154.024V3.26258C154.024 2.41623 154.697 1.99999 155.404 1.99999C156.111 1.99999 156.755 2.42316 156.755 3.23483V3.26258L156.693 7.27234L157.74 7.24459C158.356 6.34274 158.904 5.13565 159.278 4.2338C159.521 3.60251 160.048 3.33195 160.568 3.33195C161.365 3.33195 162.162 3.9355 162.162 4.69166C162.162 4.78185 162.162 5.3854 160.685 7.22378L164.865 7.16135H164.893C165.725 7.16135 166.12 7.76489 166.12 8.39619C166.12 9.02748 165.718 9.65878 164.858 9.65878L157.455 9.63103C157.885 9.83915 158.225 10.1721 158.225 10.6231C158.225 10.9561 157.767 11.9203 157.67 12.1007L163.014 12.073C163.784 12.073 164.151 12.6141 164.151 13.1899C164.151 13.731 163.784 14.2721 163.014 14.2721L154.6 14.2443V15.5416L161.448 15.5139C162.155 15.5139 162.495 16.0272 162.495 16.5406C162.495 17.0262 162.155 17.5326 161.448 17.5326L154.565 17.5049L154.537 18.8299L164.581 18.7675C165.35 18.7675 165.745 19.3433 165.718 19.9121C165.745 20.4879 165.35 21.029 164.609 21.029H164.581L164.588 21.0151ZM149.9 9.62409C150.205 9.77671 151.162 10.4982 151.467 12.0036L151.494 12.0938H154.87C155.112 11.5527 155.424 10.741 155.515 10.1375C155.542 9.89465 155.667 9.74896 155.82 9.62409H149.893H149.9Z" fill="white"/>
<path d="M178.464 27.6472C178.464 28.4936 177.695 28.9098 176.96 28.9098C176.225 28.9098 175.456 28.4867 175.456 27.6472V27.6195L175.581 16.9846C173.127 21.4175 172.358 21.4175 171.865 21.4175C171.096 21.4175 170.361 20.7862 170.361 20.0301C170.361 19.6971 170.486 19.3641 170.791 19.0658C172.358 17.4702 174.416 14.4525 175.615 11.5943L175.588 11.1711L172.794 11.2336H172.767C171.872 11.2336 171.415 10.5676 171.415 9.90854C171.415 9.2495 171.872 8.58352 172.794 8.58352H175.56L175.47 3.4291V3.40135C175.47 2.52725 176.239 2.07632 176.974 2.07632C177.709 2.07632 178.478 2.52725 178.478 3.40135V3.4291C178.478 3.4291 178.416 5.84328 178.388 8.58352H180.169C181.091 8.58352 181.521 9.2495 181.521 9.90854C181.521 10.5676 181.091 11.2336 180.197 11.2336H180.169L178.326 11.2058V13.8906H178.478C178.998 13.8906 181.369 15.3405 181.369 16.5753C181.369 17.269 180.752 17.9003 180.142 17.9003C179.837 17.9003 179.525 17.7824 179.282 17.4147C178.977 16.9638 178.638 16.5406 178.333 16.2076C178.36 20.9389 178.485 27.6264 178.485 27.6264V27.6542L178.464 27.6472ZM196.923 16.1313L191.211 16.0134C193.117 19.0866 195.696 21.4661 198.212 23.3045C198.642 23.6028 198.829 24.026 198.829 24.4491C198.829 25.2331 198.157 26.017 197.29 26.017C196.923 26.017 196.555 25.899 196.153 25.566C194.129 23.908 192.071 21.5008 190.407 18.8785C190.47 21.3482 190.532 24.2133 190.532 26.565V27.6195C190.532 28.4034 189.825 28.7919 189.118 28.7919C188.411 28.7919 187.704 28.4034 187.704 27.6195V26.5928C187.704 24.3035 187.766 21.4383 187.829 18.9964C186.415 21.591 184.633 23.9705 182.18 26.1349C181.84 26.4332 181.445 26.5858 181.077 26.5858C180.28 26.5858 179.573 25.9198 179.573 25.1984C179.573 24.8376 179.76 24.4422 180.19 24.1162C183.018 21.9448 185.229 19.3849 186.948 16.0411L182.249 16.1313H182.221C181.389 16.1313 180.994 15.5 180.994 14.8618C180.994 14.2236 181.424 13.5992 182.256 13.5992H187.725V9.98486H185.084C183.76 13.0303 182.838 13.0581 182.381 13.0581C181.674 13.0581 181.001 12.5447 181.001 11.8857C181.001 11.6151 181.091 11.3446 181.341 11.0393C182.783 9.22869 183.309 7.36255 183.892 5.19118C184.079 4.52519 184.626 4.22689 185.181 4.22689C185.888 4.22689 186.595 4.7125 186.595 5.48948C186.595 5.73229 186.255 6.87694 186.04 7.48049H187.732V3.50541C187.732 2.65906 188.439 2.24282 189.111 2.24282C189.846 2.24282 190.553 2.666 190.553 3.50541V7.48049H195.53C196.389 7.48049 196.819 8.11178 196.819 8.71533C196.819 9.34662 196.389 9.97792 195.53 9.97792H190.553V13.5923H196.944C197.775 13.5923 198.17 14.2236 198.17 14.8548C198.17 15.4861 197.768 16.1244 196.971 16.1244H196.944L196.923 16.1313Z" fill="white"/>
<path d="M220.206 10.8034C220.975 20.7515 224.753 24.8445 225.64 24.8445C226.16 24.8445 226.624 24.0884 227.082 22.0696C227.234 21.2857 227.879 20.9527 228.524 20.9527C229.321 20.9527 230.18 21.4938 230.18 22.4304C230.18 23.0339 229.016 28.1536 225.668 28.1536C224.406 28.1536 223.117 27.3697 222.258 26.2528C219.152 22.2777 217.745 16.6377 217.191 10.7896H204.416C203.432 10.7896 202.939 10.0958 202.939 9.4021C202.939 8.70837 203.432 8.01464 204.416 8.01464H217.01C216.92 6.44681 216.886 4.87898 216.886 3.34583C216.886 2.49948 217.683 2.04855 218.452 2.04855C219.284 2.04855 220.081 2.49948 220.081 3.46376V3.5262C220.081 4.21993 220.053 4.9761 220.053 5.72533C220.053 6.47456 220.081 7.23072 220.081 8.01464H228.038C228.988 8.01464 229.452 8.70837 229.452 9.4021C229.452 10.0958 228.988 10.7896 228.038 10.7896H220.206V10.8034ZM209.337 16.8597H206.114C205.192 16.8597 204.7 16.166 204.7 15.4722C204.7 14.7785 205.192 14.1125 206.114 14.1125H215.146C216.095 14.1125 216.56 14.8063 216.56 15.4722C216.56 16.1382 216.102 16.8597 215.146 16.8597H212.2L212.172 22.1321C213.739 21.6811 215.18 21.1955 216.29 20.7723C216.477 20.7099 216.657 20.6544 216.809 20.6544C217.579 20.6544 218.099 21.3204 218.099 21.9794C218.099 22.465 217.821 22.9437 217.149 23.2143C212.512 25.0527 206.093 26.6829 204.957 26.6829C203.945 26.6829 203.362 25.9615 203.362 25.2053C203.362 24.574 203.792 23.9427 204.776 23.7901C206.253 23.5473 207.847 23.249 209.386 22.8882L209.358 16.8597H209.337ZM224.233 6.57862C223.401 5.67677 222.424 5.07322 221.869 4.76798C221.412 4.49742 221.197 4.102 221.197 3.71351C221.197 3.08221 221.717 2.47867 222.486 2.47867C223.069 2.47867 226.666 4.16443 226.666 5.64208C226.666 6.39825 226.021 7.05729 225.252 7.05729C224.912 7.05729 224.58 6.93936 224.24 6.57862H224.233Z" fill="white"/>
<path d="M248.492 6.00976C248.152 5.64902 247.91 5.46865 247.695 5.46865C247.48 5.46865 247.265 5.64902 246.96 6.00976C244.444 9.14542 240.389 12.9401 237.104 15.0491C236.646 15.3474 236.216 15.4722 235.814 15.4722C234.83 15.4722 234.123 14.6883 234.123 13.8767C234.123 13.3633 234.428 12.8222 235.107 12.4615C238.67 10.6508 242.475 6.97405 244.811 3.991C245.546 3.05447 246.503 2.54111 247.48 2.54111C248.457 2.54111 249.449 2.99203 250.37 3.991C253.379 7.15442 256.664 9.68653 260.324 11.5249C260.906 11.8232 261.156 12.3088 261.156 12.8222C261.156 13.6963 260.386 14.5981 259.347 14.5981C257.69 14.5981 251.916 9.74897 248.506 6.00976H248.492ZM246.926 18.9964C246.371 20.7169 245.602 22.9437 244.687 24.8723C247.515 24.6642 250.308 24.3312 252.977 23.9358C252.27 23.3045 251.5 22.7009 250.738 22.1876C250.273 21.8893 250.093 21.5216 250.093 21.1608C250.093 20.5295 250.738 19.926 251.535 19.926C253.344 19.926 258.875 24.9555 258.875 26.7384C258.875 27.6403 258.016 28.3687 257.156 28.3687C256.664 28.3687 256.207 28.1259 255.895 27.557C255.59 27.0159 255.25 26.5026 254.883 26.017C247.695 27.4946 238.975 28.0635 238.358 28.0635C237.436 28.0635 236.944 27.2795 236.944 26.5581C236.944 25.8921 237.346 25.233 238.206 25.1984C239.28 25.1706 240.389 25.1359 241.491 25.0804C242.351 23.3322 243.148 21.0152 243.675 19.0242L237.866 19.0519C236.882 19.0519 236.424 18.4206 236.424 17.7546C236.424 17.0886 236.916 16.3394 237.866 16.3394H257.371C258.356 16.3394 258.848 17.0331 258.848 17.7269C258.848 18.4206 258.356 19.0519 257.371 19.0519L246.926 18.9895V18.9964ZM243.425 13.4535C242.475 13.4535 241.983 12.7875 241.983 12.0938C241.983 11.4 242.475 10.741 243.425 10.741H252.242C253.192 10.741 253.684 11.4347 253.684 12.0938C253.684 12.7528 253.192 13.4535 252.242 13.4535H243.425Z" fill="white"/>
<path d="M273.646 27.4946C273.646 28.341 272.912 28.7295 272.17 28.7295C271.428 28.7295 270.631 28.3063 270.631 27.4946V27.4669L270.784 17.824C269.709 18.7259 267.893 19.9954 267.006 19.9954C266.119 19.9954 265.439 19.3294 265.439 18.6079C265.439 18.157 265.717 17.7061 266.334 17.3731C271.865 14.4525 274.041 9.59636 274.041 9.41599C274.041 9.11769 273.577 9.083 273.369 9.083H272.815C271.061 9.083 269.744 9.20094 267.838 9.23562H267.81C266.888 9.23562 266.396 8.56964 266.396 7.93835C266.396 7.30705 266.86 6.64107 267.775 6.64107C268.725 6.61332 269.682 6.61332 270.631 6.57863L270.603 3.56784C270.603 2.66599 271.373 2.20813 272.108 2.20813C272.842 2.20813 273.646 2.65905 273.646 3.56784V6.55088H274.658C276.44 6.57863 277.299 7.42499 277.299 8.56964C277.299 10.1375 274.963 13.3633 273.487 15.0768C273.515 19.7456 273.639 27.4599 273.639 27.4599V27.4877L273.646 27.4946ZM276.904 18.9964C276.26 18.0946 275.31 17.3384 274.541 16.9152C274.201 16.7349 274.048 16.4296 274.048 16.1591C274.048 15.4931 274.721 14.7993 275.49 14.7993C276.072 14.7993 279.358 16.4574 279.358 17.935C279.358 18.7814 278.623 19.5306 277.854 19.5306C277.514 19.5306 277.181 19.378 276.904 18.9895V18.9964ZM276.447 27.4044C275.497 27.4044 275.033 26.7107 275.033 26.0447C275.033 25.3787 275.497 24.685 276.447 24.685L282.526 24.7128L282.498 14.1958L278.505 14.2235C277.556 14.2235 277.091 13.5298 277.091 12.8638C277.091 12.1979 277.556 11.5111 278.471 11.5111H278.498L282.491 11.5388V4.01877C282.491 3.08223 283.26 2.63131 284.057 2.63131C284.855 2.63131 285.596 3.08223 285.596 4.01877L285.569 11.5804L290.025 11.518H290.053C291.003 11.518 291.495 12.184 291.495 12.8708C291.495 13.5576 291.003 14.2305 290.019 14.2305L285.562 14.2027V24.7197L291.523 24.6919C292.507 24.6919 292.999 25.3857 292.999 26.0517C292.999 26.7176 292.507 27.4114 291.523 27.4114H276.44L276.447 27.4044Z" fill="white"/>
</g>
<g clip-path="url(#clip1_6881_233)">
<path d="M26.414 0V1.38465H20.1845V0H10.8094V1.38465H4.58598V0H0L1.18189 31H12.3914V29.4175H18.6209V31H29.8304L31 0H26.414ZM9.61517 7.04686C18.9964 -0.426521 24.7766 9.59362 24.7766 9.59362L21.1509 10.0325L8.65489 19.5519C8.65489 19.5519 1.36041 13.6301 9.61517 7.04686ZM21.2309 24.3302C11.8497 31.8036 6.0695 21.7834 6.0695 21.7834L9.69519 21.3446L22.1912 11.8251C22.1912 11.8251 29.4857 17.747 21.2309 24.3302Z" fill="white"/>
</g>
<defs>
<clipPath id="clip0_6881_233">
<rect width="249" height="27" fill="white" transform="translate(44 2)"/>
</clipPath>
<clipPath id="clip1_6881_233">
<rect width="31" height="31" fill="white"/>
</clipPath>
</defs>
</svg>
